<svg width="168" height="85" viewBox="0 0 168 85" fill="none" xmlns="http://www.w3.org/2000/svg">
<path d="M27.48 83.6746C21.2223 85.7933 16.9437 83.457 14.6444 76.6657L8.33746 58.038L3.24397 59.7626L0.115162 50.5215L5.20865 48.797L1.7103 38.4645L10.4884 29.8961L15.6867 45.2494L23.7635 42.5147L26.8923 51.7558L18.8155 54.4904L24.7775 72.0993C25.0074 72.7785 25.3821 73.2464 25.9016 73.5031C26.4532 73.6948 27.02 73.6921 27.6021 73.4951C29.7365 72.7724 31.7067 71.5646 33.5126 69.8718L35.354 79.1432C33.4518 81.0308 30.8272 82.5413 27.48 83.6746Z" fill="white"/>
<path d="M29.4957 36.5998C27.8463 37.1582 26.2182 37.0606 24.6113 36.307C22.988 35.5049 21.8971 34.2791 21.3387 32.6298C20.7802 30.9805 20.886 29.3766 21.6561 27.8182C22.4746 26.2434 23.7328 25.1685 25.4307 24.5937C27.1285 24.0189 28.7566 24.1165 30.315 24.8865C31.857 25.608 32.9154 26.8177 33.4903 28.5156C34.0487 30.1649 33.9511 31.793 33.1975 33.3999C32.4274 34.9583 31.1935 36.0249 29.4957 36.5998ZM37.9802 79.1462L25.3911 41.9637L35.9419 38.3914L48.531 75.5739L37.9802 79.1462Z" fill="white"/>
<path d="M68.1001 69.9216C62.8125 71.7118 58.0091 71.4186 53.6899 69.042C49.3707 66.6654 46.1845 62.4453 44.1315 56.3816C42.1113 50.4149 42.0865 45.1515 44.0571 40.5912C46.0598 35.966 49.6806 32.7665 54.9196 30.9927C63.3603 28.1349 70.1073 30.1762 75.1606 37.1165L66.2278 43.7907C63.9311 40.9996 61.3517 40.0886 58.4896 41.0577C56.5007 41.7311 55.147 43.1626 54.4286 45.3524C53.7586 47.5258 53.8917 49.995 54.8279 52.7601C55.764 55.5251 57.1584 57.5673 59.0109 58.8866C60.847 60.1574 62.7352 60.4643 64.6756 59.8073C67.7317 58.7726 69.2099 56.2715 69.1102 52.3041L80.2099 51.7902C80.5773 61.02 76.5407 67.0637 68.1001 69.9216Z" fill="white"/>
<path d="M120.664 51.1513L109.167 55.0438L93.0127 39.6693L91.11 43.1522L96.5792 59.3059L86.0284 62.8781L69.9163 15.2904L78.7918 6.77014L87.1435 31.4372L93.3767 18.9453L105.892 14.7079L98.261 29.5385L120.664 51.1513Z" fill="white"/>
<path d="M108.853 36.8205L105.453 26.779L125.245 20.0779L128.645 30.1194L108.853 36.8205Z" fill="white"/>
<path d="M154.728 40.5915C149.246 42.4474 144.346 42.1871 140.026 39.8105C135.707 37.4339 132.513 33.1895 130.443 27.0773C128.423 21.1106 128.398 15.8472 130.369 11.2869C132.388 6.71024 136.114 3.50214 141.547 1.66263C146.495 -0.0126339 151.03 0.12795 155.153 2.08439C159.276 4.04083 162.307 7.8811 164.245 13.6052C165.05 15.9822 165.569 17.8341 165.802 19.1611L142.008 27.2171C142.893 29.5128 144.212 31.0127 145.964 31.7171C147.7 32.3729 149.611 32.3477 151.697 31.6415C155.093 30.4918 157.439 28.2376 158.735 24.879L166.916 28.9218C164.709 34.6978 160.646 38.5877 154.728 40.5915ZM139.395 19.2612L153.293 14.5557C151.363 10.613 148.313 9.34797 144.141 10.7604C142.249 11.401 140.885 12.4844 140.051 14.0107C139.199 15.4886 138.981 17.2387 139.395 19.2612Z" fill="white"/>
</svg>
