<svg width="252" height="252" viewBox="0 0 252 252" fill="none" xmlns="http://www.w3.org/2000/svg">
<rect x="1.0929" y="0.851959" width="250" height="250" rx="35" fill="white"/>
<path d="M61.8204 104.608L196.028 81.8584L211.195 171.33L76.9865 194.08L61.8204 104.608ZM223.266 111.038C220.557 114.853 219.598 119.091 220.388 123.751C221.177 128.411 223.48 132.095 227.295 134.804C231.11 137.513 235.347 138.473 240.007 137.683L245.694 171.235C246.484 175.895 245.525 180.133 242.816 183.948C240.107 187.763 236.422 190.065 231.762 190.855L64.002 219.291C59.342 220.081 55.1045 219.122 51.2896 216.413C47.4747 213.703 45.1722 210.019 44.3823 205.359L38.695 171.807C43.3551 171.017 47.0396 168.715 49.7487 164.9C52.4577 161.085 53.4173 156.847 52.6274 152.187C51.8375 147.527 49.5351 143.843 45.7202 141.134C41.9052 138.425 37.6678 137.465 33.0078 138.255L27.3205 104.703C26.5306 100.043 27.4901 95.8054 30.1992 91.9905C32.9083 88.1756 36.5928 85.8731 41.2528 85.0832L209.013 56.6467C213.673 55.8568 217.91 56.8164 221.725 59.5255C225.54 62.2346 227.843 65.9191 228.633 70.5791L234.32 104.131C229.66 104.921 225.975 107.223 223.266 111.038ZM197.45 90.2464C197.055 87.9164 195.904 86.0741 193.997 84.7196C192.089 83.3651 189.97 82.8853 187.64 83.2802L70.2084 103.186C67.8784 103.581 66.0361 104.732 64.6816 106.639C63.327 108.547 62.8472 110.666 63.2422 112.996L75.5647 185.692C75.9596 188.022 77.1108 189.864 79.0183 191.218C80.9258 192.573 83.0445 193.053 85.3745 192.658L202.807 172.752C205.137 172.357 206.979 171.206 208.333 169.299C209.688 167.391 210.168 165.272 209.773 162.942L197.45 90.2464Z" fill="#001764"/>
<path d="M61.8204 104.608L196.028 81.8584L211.195 171.33L76.9865 194.08L61.8204 104.608ZM223.266 111.038C220.557 114.853 219.598 119.091 220.388 123.751C221.177 128.411 223.48 132.095 227.295 134.804C231.11 137.513 235.347 138.473 240.007 137.683L245.694 171.235C246.484 175.895 245.525 180.133 242.816 183.948C240.107 187.763 236.422 190.065 231.762 190.855L64.002 219.291C59.342 220.081 55.1045 219.122 51.2896 216.413C47.4747 213.703 45.1722 210.019 44.3823 205.359L38.695 171.807C43.3551 171.017 47.0396 168.715 49.7487 164.9C52.4577 161.085 53.4173 156.847 52.6274 152.187C51.8375 147.527 49.5351 143.843 45.7202 141.134C41.9052 138.425 37.6678 137.465 33.0078 138.255L27.3205 104.703C26.5306 100.043 27.4901 95.8054 30.1992 91.9905C32.9083 88.1756 36.5928 85.8731 41.2528 85.0832L209.013 56.6467C213.673 55.8568 217.91 56.8164 221.725 59.5255C225.54 62.2346 227.843 65.9191 228.633 70.5791L234.32 104.131C229.66 104.921 225.975 107.223 223.266 111.038ZM197.45 90.2464C197.055 87.9164 195.904 86.0741 193.997 84.7196C192.089 83.3651 189.97 82.8853 187.64 83.2802L70.2084 103.186C67.8784 103.581 66.0361 104.732 64.6816 106.639C63.327 108.547 62.8472 110.666 63.2422 112.996L75.5647 185.692C75.9596 188.022 77.1108 189.864 79.0183 191.218C80.9258 192.573 83.0445 193.053 85.3745 192.658L202.807 172.752C205.137 172.357 206.979 171.206 208.333 169.299C209.688 167.391 210.168 165.272 209.773 162.942L197.45 90.2464Z" fill="#001764"/>
<path d="M50.5822 105.318L182.186 70.5352L205.374 158.271L73.771 193.054L50.5822 105.318ZM211.949 97.1346C209.596 101.179 209.023 105.486 210.231 110.055C211.438 114.625 214.064 118.086 218.108 120.439C222.152 122.793 226.459 123.365 231.029 122.158L239.725 155.059C240.932 159.628 240.36 163.935 238.006 167.979C235.653 172.023 232.192 174.649 227.622 175.857L63.1178 219.336C58.5483 220.544 54.2414 219.971 50.1973 217.618C46.1532 215.264 43.5272 211.803 42.3195 207.233L33.6237 174.333C38.1932 173.125 41.6547 170.499 44.0079 166.455C46.3612 162.411 46.934 158.104 45.7262 153.534C44.5185 148.965 41.8925 145.503 37.8484 143.15C33.8043 140.797 29.4974 140.224 24.9279 141.432L16.2321 108.531C15.0243 103.961 15.5971 99.6544 17.9503 95.6103C20.3036 91.5662 23.765 88.9402 28.3346 87.7325L192.839 44.2534C197.408 43.0457 201.715 43.6184 205.759 45.9717C209.804 48.325 212.429 51.7864 213.637 56.356L222.333 89.2568C217.763 90.4646 214.302 93.0905 211.949 97.1346ZM184.36 78.7605C183.756 76.4757 182.443 74.745 180.421 73.5683C178.399 72.3917 176.245 72.1053 173.96 72.7092L58.8074 103.145C56.5227 103.748 54.7919 105.061 53.6153 107.083C52.4387 109.105 52.1523 111.259 52.7562 113.544L71.5971 184.829C72.201 187.114 73.5139 188.844 75.536 190.021C77.5581 191.198 79.7115 191.484 81.9963 190.88L197.149 160.445C199.434 159.841 201.165 158.528 202.341 156.506C203.518 154.484 203.804 152.33 203.201 150.046L184.36 78.7605Z" fill="#FCC200"/>
<path d="M50.5822 105.318L182.186 70.5352L205.374 158.271L73.771 193.054L50.5822 105.318ZM211.949 97.1346C209.596 101.179 209.023 105.486 210.231 110.055C211.438 114.625 214.064 118.086 218.108 120.439C222.152 122.793 226.459 123.365 231.029 122.158L239.725 155.059C240.932 159.628 240.36 163.935 238.006 167.979C235.653 172.023 232.192 174.649 227.622 175.857L63.1178 219.336C58.5483 220.544 54.2414 219.971 50.1973 217.618C46.1532 215.264 43.5272 211.803 42.3195 207.233L33.6237 174.333C38.1932 173.125 41.6547 170.499 44.0079 166.455C46.3612 162.411 46.934 158.104 45.7262 153.534C44.5185 148.965 41.8925 145.503 37.8484 143.15C33.8043 140.797 29.4974 140.224 24.9279 141.432L16.2321 108.531C15.0243 103.961 15.5971 99.6544 17.9503 95.6103C20.3036 91.5662 23.765 88.9402 28.3346 87.7325L192.839 44.2534C197.408 43.0457 201.715 43.6184 205.759 45.9717C209.804 48.325 212.429 51.7864 213.637 56.356L222.333 89.2568C217.763 90.4646 214.302 93.0905 211.949 97.1346ZM184.36 78.7605C183.756 76.4757 182.443 74.745 180.421 73.5683C178.399 72.3917 176.245 72.1053 173.96 72.7092L58.8074 103.145C56.5227 103.748 54.7919 105.061 53.6153 107.083C52.4387 109.105 52.1523 111.259 52.7562 113.544L71.5971 184.829C72.201 187.114 73.5139 188.844 75.536 190.021C77.5581 191.198 79.7115 191.484 81.9963 190.88L197.149 160.445C199.434 159.841 201.165 158.528 202.341 156.506C203.518 154.484 203.804 152.33 203.201 150.046L184.36 78.7605Z" fill="#FCC200"/>
<path d="M40.0424 104.559L168.977 60.9108L198.076 146.867L69.141 190.515L40.0424 104.559ZM200.48 85.4257C198.407 89.6204 198.128 93.9562 199.643 98.4331C201.159 102.91 204.014 106.185 208.209 108.258C212.404 110.331 216.739 110.61 221.216 109.094L232.128 141.328C233.644 145.805 233.365 150.14 231.292 154.335C229.219 158.53 225.944 161.385 221.467 162.901L60.2987 217.46C55.8218 218.976 51.486 218.697 47.2913 216.624C43.0966 214.551 40.2414 211.276 38.7259 206.799L27.8139 174.566C32.2908 173.05 35.5658 170.195 37.6387 166C39.7117 161.806 39.9904 157.47 38.4748 152.993C36.9593 148.516 34.1041 145.241 29.9094 143.168C25.7147 141.095 21.3789 140.816 16.902 142.332L5.99003 110.098C4.47448 105.621 4.75319 101.286 6.82614 97.0908C8.89909 92.8961 12.174 90.041 16.6509 88.5254L177.82 33.9657C182.296 32.4501 186.632 32.7288 190.827 34.8018C195.022 36.8747 197.877 40.1496 199.392 44.6265L210.304 76.8603C205.827 78.3758 202.553 81.2309 200.48 85.4257ZM171.705 68.9692C170.948 66.7308 169.52 65.0933 167.423 64.0568C165.325 63.0203 163.157 62.881 160.919 63.6388L48.1009 101.831C45.8624 102.588 44.2249 104.016 43.1885 106.113C42.152 108.211 42.0126 110.379 42.7704 112.617L66.413 182.457C67.1707 184.695 68.5983 186.333 70.6957 187.369C72.793 188.406 74.9609 188.545 77.1994 187.787L190.017 149.595C192.256 148.838 193.893 147.41 194.93 145.313C195.966 143.215 196.106 141.047 195.348 138.809L171.705 68.9692Z" fill="#001764"/>
<path d="M40.0424 104.559L168.977 60.9108L198.076 146.867L69.141 190.515L40.0424 104.559ZM200.48 85.4257C198.407 89.6204 198.128 93.9562 199.643 98.4331C201.159 102.91 204.014 106.185 208.209 108.258C212.404 110.331 216.739 110.61 221.216 109.094L232.128 141.328C233.644 145.805 233.365 150.14 231.292 154.335C229.219 158.53 225.944 161.385 221.467 162.901L60.2987 217.46C55.8218 218.976 51.486 218.697 47.2913 216.624C43.0966 214.551 40.2414 211.276 38.7259 206.799L27.8139 174.566C32.2908 173.05 35.5658 170.195 37.6387 166C39.7117 161.806 39.9904 157.47 38.4748 152.993C36.9593 148.516 34.1041 145.241 29.9094 143.168C25.7147 141.095 21.3789 140.816 16.902 142.332L5.99003 110.098C4.47448 105.621 4.75319 101.286 6.82614 97.0908C8.89909 92.8961 12.174 90.041 16.6509 88.5254L177.82 33.9657C182.296 32.4501 186.632 32.7288 190.827 34.8018C195.022 36.8747 197.877 40.1496 199.392 44.6265L210.304 76.8603C205.827 78.3758 202.553 81.2309 200.48 85.4257ZM171.705 68.9692C170.948 66.7308 169.52 65.0933 167.423 64.0568C165.325 63.0203 163.157 62.881 160.919 63.6388L48.1009 101.831C45.8624 102.588 44.2249 104.016 43.1885 106.113C42.152 108.211 42.0126 110.379 42.7704 112.617L66.413 182.457C67.1707 184.695 68.5983 186.333 70.6957 187.369C72.793 188.406 74.9609 188.545 77.1994 187.787L190.017 149.595C192.256 148.838 193.893 147.41 194.93 145.313C195.966 143.215 196.106 141.047 195.348 138.809L171.705 68.9692Z" fill="#001764"/>
<rect x="34.3123" y="107.696" width="149.357" height="88.8577" rx="6" transform="rotate(-18.7049 34.3123 107.696)" fill="#FCC200"/>
<path d="M81.0786 157.346C76.7776 158.802 73.837 157.197 72.2566 152.529L67.9219 139.726L64.4211 140.911L62.2707 134.56L65.7715 133.375L63.367 126.273L69.4002 120.384L72.973 130.936L78.5242 129.057L80.6746 135.408L75.1234 137.288L79.2211 149.39C79.3791 149.857 79.6367 150.179 79.9937 150.355C80.3728 150.487 80.7624 150.485 81.1625 150.35C82.6294 149.853 83.9835 149.023 85.2248 147.859L86.4904 154.232C85.183 155.529 83.3791 156.567 81.0786 157.346Z" fill="white"/>
<path d="M82.4639 124.992C81.3303 125.375 80.2113 125.308 79.1069 124.79C77.9912 124.239 77.2414 123.397 76.8576 122.263C76.4738 121.129 76.5465 120.027 77.0758 118.956C77.6384 117.874 78.5031 117.135 79.67 116.74C80.837 116.345 81.956 116.412 83.0271 116.941C84.0869 117.437 84.8143 118.268 85.2094 119.435C85.5932 120.569 85.5261 121.688 85.0082 122.792C84.4789 123.863 83.6308 124.597 82.4639 124.992ZM88.2953 154.234L79.6428 128.678L86.8944 126.223L95.5469 151.779L88.2953 154.234Z" fill="white"/>
<path d="M108.997 147.894C105.363 149.124 102.061 148.923 99.0926 147.289C96.124 145.656 93.9342 142.755 92.5231 138.588C91.1347 134.487 91.1176 130.869 92.472 127.735C93.8484 124.556 96.337 122.357 99.9378 121.138C105.739 119.174 110.376 120.577 113.849 125.347L107.71 129.934C106.131 128.016 104.359 127.39 102.391 128.056C101.024 128.518 100.094 129.502 99.6003 131.007C99.1398 132.501 99.2313 134.198 99.8747 136.099C100.518 137.999 101.476 139.403 102.75 140.309C104.012 141.183 105.309 141.394 106.643 140.942C108.744 140.231 109.76 138.512 109.691 135.785L117.32 135.432C117.572 141.776 114.798 145.93 108.997 147.894Z" fill="white"/>
<path d="M145.124 134.993L137.222 137.668L126.119 127.101L124.811 129.495L128.57 140.598L121.319 143.053L110.245 110.346L116.345 104.49L122.085 121.443L126.369 112.858L134.971 109.945L129.726 120.138L145.124 134.993Z" fill="white"/>
<path d="M137.006 125.143L134.669 118.242L148.272 113.636L150.609 120.538L137.006 125.143Z" fill="white"/>
<path d="M168.536 127.735C164.768 129.011 161.4 128.832 158.432 127.198C155.463 125.565 153.268 122.648 151.845 118.447C150.457 114.346 150.44 110.728 151.794 107.594C153.182 104.449 155.743 102.244 159.477 100.979C162.878 99.8279 165.995 99.9245 168.828 101.269C171.662 102.614 173.745 105.253 175.077 109.187C175.63 110.821 175.987 112.094 176.147 113.006L159.793 118.543C160.402 120.121 161.308 121.152 162.513 121.636C163.706 122.087 165.019 122.069 166.453 121.584C168.787 120.794 170.399 119.244 171.29 116.936L176.913 119.715C175.396 123.684 172.603 126.358 168.536 127.735ZM157.998 113.075L167.55 109.841C166.224 107.131 164.127 106.261 161.259 107.232C159.959 107.673 159.022 108.417 158.448 109.466C157.863 110.482 157.713 111.685 157.998 113.075Z" fill="white"/>
</svg>
